<svg version="1.1" id="Layer_1" xmlns="http://www.w3.org/2000/svg" xmlns:xlink="http://www.w3.org/1999/xlink" x="0px" y="0px"
	 width="100%" viewBox="0 0 500 500" enable-background="new 0 0 500 500" xml:space="preserve">
<path fill="#FFFFFF" opacity="1.000000" stroke="none" 
	d="
M280.000000,501.000000 
	C186.666687,501.000000 93.833374,501.000000 1.000050,501.000000 
	C1.000033,334.333405 1.000033,167.666794 1.000017,1.000139 
	C167.666565,1.000093 334.333130,1.000093 500.999756,1.000046 
	C500.999847,167.666519 500.999847,334.333038 500.999939,500.999786 
	C427.500000,501.000000 354.000000,501.000000 280.000000,501.000000 
M162.081787,131.963135 
	C162.081787,131.963135 162.001938,132.359238 161.109772,132.647964 
	C153.612717,132.693954 146.100861,133.064560 138.621490,132.723206 
	C118.675156,131.812897 98.091347,150.151520 96.886108,173.067245 
	C96.379044,182.708282 95.480629,192.329239 94.725746,201.956635 
	C92.500336,230.338303 90.249565,258.717987 88.024376,287.099640 
	C86.137764,311.162872 84.388985,335.237610 82.364952,359.289185 
	C80.451523,382.026611 84.785904,403.153229 98.788071,421.507355 
	C114.715988,442.385742 135.476089,455.353455 162.263168,456.116028 
	C187.235199,456.826904 212.237061,456.606201 237.225662,456.589813 
	C271.211914,456.567505 305.238373,457.331879 339.172729,455.937317 
	C372.600067,454.563599 395.974670,436.236511 410.736847,406.849915 
	C418.568848,391.259064 419.809265,374.498260 418.230927,357.187225 
	C415.646332,328.839722 413.897919,300.416626 411.708160,272.032288 
	C409.210968,239.661850 406.060181,207.329865 404.255890,174.922028 
	C403.007294,152.494644 384.272919,131.257706 360.080841,132.658798 
	C352.636108,133.089951 345.130066,132.461868 338.053009,131.411285 
	C337.878021,127.923553 337.928009,124.407539 337.493835,120.952377 
	C332.158051,78.489899 296.543945,47.153801 257.400330,44.644978 
	C229.603378,42.863396 205.985992,51.713722 186.658508,71.617744 
	C170.513565,88.244324 162.728287,108.478516 162.081787,131.963135 
z"/>
<path fill="#FF9629" opacity="1.000000" stroke="none" 
	d="
M337.652100,132.318817 
	C345.130066,132.461868 352.636108,133.089951 360.080841,132.658798 
	C384.272919,131.257706 403.007294,152.494644 404.255890,174.922028 
	C406.060181,207.329865 409.210968,239.661850 411.708160,272.032288 
	C413.897919,300.416626 415.646332,328.839722 418.230927,357.187225 
	C419.809265,374.498260 418.568848,391.259064 410.736847,406.849915 
	C395.974670,436.236511 372.600067,454.563599 339.172729,455.937317 
	C305.238373,457.331879 271.211914,456.567505 237.225662,456.589813 
	C212.237061,456.606201 187.235199,456.826904 162.263168,456.116028 
	C135.476089,455.353455 114.715988,442.385742 98.788071,421.507355 
	C84.785904,403.153229 80.451523,382.026611 82.364952,359.289185 
	C84.388985,335.237610 86.137764,311.162872 88.024376,287.099640 
	C90.249565,258.717987 92.500336,230.338303 94.725746,201.956635 
	C95.480629,192.329239 96.379044,182.708282 96.886108,173.067245 
	C98.091347,150.151520 118.675156,131.812897 138.621490,132.723206 
	C146.100861,133.064560 153.612717,132.693954 162.008698,132.629929 
	C170.674469,132.561310 178.441330,132.510727 186.661896,132.475037 
	C187.719986,132.460999 188.324341,132.432114 189.392273,132.494385 
	C238.292679,132.590805 286.729523,132.596100 335.580933,132.541870 
	C336.547699,132.427841 337.099884,132.373322 337.652100,132.318817 
M324.962738,286.786621 
	C319.729431,277.465973 312.128632,273.405060 302.395782,274.952820 
	C294.040253,276.281586 289.099884,281.554596 285.718445,289.069885 
	C274.938507,313.028351 245.303589,319.877319 225.700455,302.474915 
	C220.561935,297.913239 217.399994,291.027985 213.668991,285.000214 
	C207.879395,275.646606 196.465591,271.920380 186.779877,276.534546 
	C176.440979,281.459900 171.790634,292.836609 175.844238,303.287720 
	C187.225281,332.630676 216.488907,353.154419 246.056091,354.425262 
	C285.429169,356.117584 313.712769,331.740967 324.747070,305.417511 
	C327.227142,299.501129 327.882568,293.560364 324.962738,286.786621 
M239.655396,259.013031 
	C249.814316,264.505615 261.166656,262.494171 268.492096,253.903625 
	C275.134155,246.114471 275.472473,234.085159 269.146362,225.736526 
	C263.165741,217.843842 254.972076,215.582016 245.652924,217.503540 
	C236.654739,219.358917 231.035019,225.277664 229.045547,234.108566 
	C226.727570,244.397675 230.074158,252.747040 239.655396,259.013031 
z"/>
<path fill="#02C3CB" opacity="1.000000" stroke="none" 
	d="
M337.852539,131.865051 
	C337.099884,132.373322 336.547699,132.427841 335.223602,132.451691 
	C327.165009,132.421036 319.878296,132.421036 312.367157,132.421036 
	C312.188477,130.854446 312.022858,129.734055 311.937622,128.607590 
	C309.084808,90.895706 275.468811,65.068336 238.224915,71.980400 
	C209.622482,77.288689 187.354492,104.582787 188.928711,132.403229 
	C188.324341,132.432114 187.719986,132.460999 186.359039,132.444275 
	C177.793488,132.122467 169.984497,131.846268 162.175507,131.570068 
	C162.728287,108.478516 170.513565,88.244324 186.658508,71.617744 
	C205.985992,51.713722 229.603378,42.863396 257.400330,44.644978 
	C296.543945,47.153801 332.158051,78.489899 337.493835,120.952377 
	C337.928009,124.407539 337.878021,127.923553 337.852539,131.865051 
z"/>
<path fill="#FDFEFD" opacity="1.000000" stroke="none" 
	d="
M162.128647,131.766602 
	C169.984497,131.846268 177.793488,132.122467 185.905334,132.429413 
	C178.441330,132.510727 170.674469,132.561310 162.454773,132.485565 
	C162.001938,132.359238 162.081787,131.963135 162.128647,131.766602 
z"/>
<path fill="#FFFEFE" opacity="1.000000" stroke="none" 
	d="
M325.099152,287.151581 
	C327.882568,293.560364 327.227142,299.501129 324.747070,305.417511 
	C313.712769,331.740967 285.429169,356.117584 246.056091,354.425262 
	C216.488907,353.154419 187.225281,332.630676 175.844238,303.287720 
	C171.790634,292.836609 176.440979,281.459900 186.779877,276.534546 
	C196.465591,271.920380 207.879395,275.646606 213.668991,285.000214 
	C217.399994,291.027985 220.561935,297.913239 225.700455,302.474915 
	C245.303589,319.877319 274.938507,313.028351 285.718445,289.069885 
	C289.099884,281.554596 294.040253,276.281586 302.395782,274.952820 
	C312.128632,273.405060 319.729431,277.465973 325.099152,287.151581 
z"/>
<path fill="#FDFEFD" opacity="1.000000" stroke="none" 
	d="
M189.392273,132.494385 
	C187.354492,104.582787 209.622482,77.288689 238.224915,71.980400 
	C275.468811,65.068336 309.084808,90.895706 311.937622,128.607590 
	C312.022858,129.734055 312.188477,130.854446 312.367157,132.421036 
	C319.878296,132.421036 327.165009,132.421036 334.809021,132.511215 
	C286.729523,132.596100 238.292679,132.590805 189.392273,132.494385 
z"/>
<path fill="#FFFEFD" opacity="1.000000" stroke="none" 
	d="
M239.328308,258.833801 
	C230.074158,252.747040 226.727570,244.397675 229.045547,234.108566 
	C231.035019,225.277664 236.654739,219.358917 245.652924,217.503540 
	C254.972076,215.582016 263.165741,217.843842 269.146362,225.736526 
	C275.472473,234.085159 275.134155,246.114471 268.492096,253.903625 
	C261.166656,262.494171 249.814316,264.505615 239.328308,258.833801 
z"/>
</svg>